<svg version="1.1" id="图层_1" xmlns="http://www.w3.org/2000/svg" xmlns:xlink="http://www.w3.org/1999/xlink"
     viewBox="0 0 32 32">
  <path id="XMLID_35_" d="M25.2,25.5h-2.7v-3.1h2.7c1.5,0,2.9-1.3,2.9-2.9s-1.3-2.9-2.9-2.9h-0.5c-0.2,4.8-4.3,8.7-9.2,8.7H6.8
	C3.7,25.5,1,22.8,1,19.5s2.7-5.8,5.8-5.8h14.3c-1-2.2-3.2-3.6-5.6-3.6c-1.9,0-3.7,0.9-4.9,2.4l-0.9,1.2l-2.4-1.9l0.9-1.1
	C9.9,8.3,12.6,7,15.5,7c4.2,0,7.8,2.8,8.8,6.7h0.8c3.3,0,5.8,2.7,5.8,5.8C31.1,22.8,28.4,25.5,25.2,25.5z M6.8,16.7
	c-1.5,0-2.8,1.2-2.8,2.8c0,1.6,1.2,2.9,2.8,2.9h8.6c3.3,0,5.9-2.6,6.2-5.7H6.8V16.7z"/>
</svg>
