<?xml version="1.0" standalone="no"?><!DOCTYPE svg PUBLIC "-//W3C//DTD SVG 1.1//EN" "http://www.w3.org/Graphics/SVG/1.1/DTD/svg11.dtd"><svg t="1638001990973" class="icon" viewBox="0 0 1024 1024" version="1.1" xmlns="http://www.w3.org/2000/svg" p-id="2960" xmlns:xlink="http://www.w3.org/1999/xlink" width="20" height="20"><defs><style type="text/css"></style></defs><path d="M151.552 151.552v720.896h720.896V151.552H151.552z m-32.768-65.536h786.432c9.556992 0 17.408 3.072 23.552 9.216s9.216 13.995008 9.216 23.552v786.432c0 9.556992-3.072 17.408-9.216 23.552s-13.995008 9.216-23.552 9.216H118.784c-9.556992 0-17.408-3.072-23.552-9.216s-9.216-13.995008-9.216-23.552V118.784c0-9.556992 3.072-17.408 9.216-23.552s13.995008-9.216 23.552-9.216z m262.144 196.608c43.691008 0 65.536 21.844992 65.536 65.536s-21.844992 65.536-65.536 65.536-65.536-21.844992-65.536-65.536 21.844992-65.536 65.536-65.536zM177.152 885.76l-51.2-39.936 221.184-288.768c16.384-21.163008 38.059008-33.451008 65.024-36.864 26.964992-3.412992 51.028992 2.731008 72.192 18.432l128 103.424c7.508992 5.460992 15.531008 7.68 24.064 6.656S652.288 643.755008 658.432 636.928l221.184-276.48 51.2 40.96-221.184 276.48c-17.067008 21.163008-39.083008 33.108992-66.048 35.84-26.964992 2.731008-51.028992-4.096-72.192-20.48L444.416 590.848c-7.508992-5.460992-15.531008-7.68-24.064-6.656s-15.531008 5.291008-20.992 12.8L177.152 885.76z" p-id="2961" fill="#bfbfbf"></path></svg>