<?xml version="1.0" standalone="no"?><!DOCTYPE svg PUBLIC "-//W3C//DTD SVG 1.1//EN" "http://www.w3.org/Graphics/SVG/1.1/DTD/svg11.dtd"><svg t="1638002031363" class="icon" viewBox="0 0 1024 1024" version="1.1" xmlns="http://www.w3.org/2000/svg" p-id="3203" xmlns:xlink="http://www.w3.org/1999/xlink" width="20" height="20"><defs><style type="text/css"></style></defs><path d="M136 659.344l259.667-260.219c3.1-3.1 8.2-3.1 11.3 0l86.1 86.2 37.75-37.79a7.888 7.888 0 0 1 1.508-2.11l144.3-144.3c2.958-2.958 7.737-3.093 10.862-0.407 0.235 0.187 0.463 0.39 0.68 0.607l36.8 36.8c0.274 0.265 0.524 0.545 0.751 0.837l42.647 42.696 0.006 0.007a8 8 0 0 1-0.02 11.314l-36.876 36.747a8 8 0 0 1-11.307-0.014l-37.703-37.747-183.798 183.96c-3.1 3.1-8.2 3.1-11.3 0l-86.1-86.2L136 755.512V792h334a8 8 0 0 1 8 8v56a8 8 0 0 1-8 8H96c-17.7 0-32-14.3-32-32V192c0-17.7 14.3-32 32-32h784c17.7 0 32 14.3 32 32v232a8 8 0 0 1-8 8h-56a8 8 0 0 1-8-8V232H136v427.344zM274 432c-35.345 0-64-28.655-64-64s28.655-64 64-64 64 28.655 64 64-28.655 64-64 64z m470 48c119.3 0 216 96.7 216 216s-96.7 216-216 216-216-96.7-216-216 96.7-216 216-216z m107.5 323.5C880.2 774.8 896 736.6 896 696c0-40.6-15.8-78.8-44.5-107.5C822.8 559.8 784.6 544 744 544c-40.6 0-78.8 15.8-107.5 44.5C607.8 617.2 592 655.4 592 696c0 40.6 15.8 78.8 44.5 107.5C665.2 832.2 703.4 848 744 848c40.6 0 78.8-15.8 107.5-44.5zM712 776c0-17.673 14.327-32 32-32 17.673 0 32 14.327 32 32 0 17.673-14.327 32-32 32-17.673 0-32-14.327-32-32z m12-64c-4.4 0-8-3.6-8-8V592c0-4.4 3.6-8 8-8h40c4.4 0 8 3.6 8 8v112c0 4.4-3.6 8-8 8h-40z" p-id="3204" fill="#bfbfbf"></path></svg>